<svg viewBox="0 0 96 96" xmlns="http://www.w3.org/2000/svg" xmlns:xlink="http://www.w3.org/1999/xlink" id="Icons_ShootingStar_M" overflow="hidden"><g id="Icons"><path d="M90.166 22.6553C91.2771 21.7229 91.6666 20.184 91.1328 18.8353 90.618 17.4985 89.3368 16.6135 87.9043 16.6053L79.7043 16.6053C79.0748 16.6139 78.5191 16.1959 78.3527 15.5887L75.6627 7.5145C75.2094 6.09238 73.8964 5.12031 72.4039 5.1019 70.9123 5.08842 69.59 6.05902 69.1559 7.4861L66.4459 15.6175C66.2486 16.1945 65.7137 16.5883 65.1041 16.6053L56.9023 16.6053C55.4834 16.655 54.2229 17.5255 53.6738 18.8348 53.1083 20.179 53.5002 21.7351 54.6348 22.6512L57.5488 25.2635 61.3027 28.5071C61.5091 28.6902 61.6604 28.9273 61.7393 29.1917 61.7931 29.4796 61.7908 29.7753 61.7324 30.0623L59.0449 38.5242C58.5871 39.926 59.0973 41.4624 60.3027 42.3118 61.4853 43.1378 63.0389 43.2057 64.2891 42.4861L71.6045 37.31C72.095 36.9758 72.7418 36.9822 73.2256 37.3261L80.4492 42.4437C81.0242 42.8361 81.7031 43.0485 82.3992 43.0537 83.1644 43.0491 83.9058 42.7878 84.5047 42.3115 85.6613 41.4287 86.1602 39.9284 85.7625 38.5288L83.2525 29.9927C83.0878 29.4421 83.2494 28.8457 83.6695 28.4536ZM81.3447 30.5908 83.8457 39.0991C84.0085 39.7028 83.7887 40.345 83.29 40.7222 82.8036 41.1322 82.1019 41.1624 81.582 40.7959L74.4043 35.71C73.823 35.2813 73.1188 35.0518 72.3965 35.0558 71.688 35.0504 70.9967 35.2742 70.4258 35.6939L63.2744 40.7603C62.6998 41.0682 62.0029 41.0371 61.458 40.6793 60.9601 40.3277 60.7554 39.6889 60.9561 39.1134L63.6561 30.6109 63.6834 30.5035C63.8084 29.913 63.8084 29.303 63.6834 28.7125L63.6316 28.5362C63.4291 27.9176 63.0569 27.3682 62.5574 26.9508L58.8709 23.7618 55.9031 21.106C55.4565 20.749 55.299 20.1402 55.5164 19.6114 55.7494 19.0397 56.2864 18.6496 56.9021 18.6046L65.1033 18.6046C66.5857 18.59 67.8932 17.6302 68.3514 16.2203L71.0614 8.089C71.2338 7.49417 71.784 7.08911 72.4032 7.1012 73.0231 7.12102 73.5638 7.52774 73.7548 8.1178L76.4448 16.192C76.8742 17.6311 78.2019 18.614 79.7036 18.6046L87.9036 18.6046C88.532 18.6145 89.0866 19.0176 89.29 19.6123 89.4894 20.168 89.3104 20.789 88.8457 21.1533L82.3525 26.9487C81.3288 27.8584 80.9342 29.2842 81.3447 30.5908Z" stroke="#000" stroke-width="1.00004"/><path d="M13.5654 52.74C12.0811 54.179 10.6533 55.6326 9.3203 57.06 8.94359 57.464 8.96568 58.0968 9.36965 58.4736 9.77362 58.8503 10.4065 58.8282 10.7832 58.4242 12.0918 57.0214 13.4971 55.5922 14.958 54.1767 15.3547 53.7921 15.3646 53.1588 14.9801 52.7621 14.5955 52.3653 13.9621 52.3554 13.5654 52.74Z" stroke="#000" stroke-width="1.00004"/><path d="M18.667 50.377C18.9114 50.3772 19.1473 50.2877 19.3301 50.1255 26.7528 43.5156 34.9097 37.7796 43.6406 33.03 44.1266 32.7674 44.3077 32.1605 44.045 31.6744 43.7824 31.1884 43.1755 31.0074 42.6895 31.27 33.824 36.0927 25.5413 41.917 18.0039 48.6284 17.5905 48.9946 17.5521 49.6266 17.9183 50.04 18.1081 50.2543 18.3807 50.377 18.667 50.377Z" stroke="#000" stroke-width="1.00004"/><path d="M48.5156 30.4331C48.664 30.4332 48.8105 30.4 48.9443 30.3359 50.7412 29.4814 52.5703 28.6699 54.3809 27.9248 54.8918 27.7144 55.1354 27.1298 54.925 26.6189 54.7146 26.108 54.13 25.8644 53.6191 26.0748 51.7764 26.8336 49.915 27.6598 48.085 28.5299 47.5864 28.7674 47.3747 29.3642 47.6123 29.8628 47.7782 30.2111 48.1297 30.4329 48.5156 30.4327Z" stroke="#000" stroke-width="1.00004"/><path d="M55.543 33.1108C46.5862 37.8459 38.4363 43.9703 31.3965 51.2563 31.0084 51.6494 31.0125 52.2826 31.4056 52.6707 31.7987 53.0588 32.4319 53.0547 32.82 52.6616 39.7108 45.5261 47.6887 39.5276 56.457 34.8892 56.9536 34.6475 57.1602 34.049 56.9185 33.5524 56.6768 33.0558 56.0783 32.8492 55.5817 33.0909 55.5687 33.0972 55.5558 33.1039 55.543 33.1108Z" stroke="#000" stroke-width="1.00004"/><path d="M28.667 55.5928C28.2544 55.2256 27.6223 55.2624 27.2552 55.675 27.2551 55.6751 27.255 55.6752 27.2549 55.6753 25.9072 57.1904 24.5918 58.7466 23.3457 60.3013 23.0003 60.7322 23.0696 61.3616 23.5005 61.7071 23.9315 62.0525 24.5609 61.9831 24.9063 61.5522 26.1309 60.0239 27.4238 58.4941 28.749 57.0044 29.1161 56.5919 29.0794 55.96 28.667 55.5928Z" stroke="#000" stroke-width="1.00004"/><path d="M42.5723 55.4438C36.0774 63.1598 30.3558 71.4949 25.49 80.3291 25.2074 80.8036 25.363 81.4174 25.8375 81.6999 26.3121 81.9825 26.9258 81.8269 27.2084 81.3524 27.2181 81.3361 27.2273 81.3195 27.2361 81.3027 32.0368 72.587 37.6811 64.3634 44.0879 56.75 44.4485 56.3315 44.4015 55.6999 43.983 55.3394 43.5644 54.9788 42.9329 55.0258 42.5723 55.4443Z" stroke="#000" stroke-width="1.00004"/><path d="M55.4 43.2C52.2916 45.5587 49.371 48.1552 46.6646 50.9661 46.2849 51.3671 46.3021 52.0001 46.7032 52.3798 47.0968 52.7525 47.7157 52.7437 48.0986 52.36 50.7324 49.6237 53.5747 47.0961 56.6 44.8 57.0418 44.4686 57.1314 43.8418 56.8 43.4 56.4686 42.9582 55.8418 42.8686 55.4 43.2Z" stroke="#000" stroke-width="1.00004"/><path d="M23.9854 85.2275C23.4938 84.9768 22.892 85.172 22.6413 85.6636 22.6411 85.6641 22.6408 85.6645 22.6406 85.665 21.7578 87.4004 21.2939 88.405 21.2939 88.405 21.0508 88.9009 21.2557 89.5 21.7515 89.7431 22.2474 89.9863 22.8465 89.7814 23.0897 89.2855 23.0962 89.2721 23.1025 89.2586 23.1084 89.245 23.1133 89.235 23.5664 88.2567 24.4238 86.5727 24.674 86.0802 24.4778 85.4781 23.9854 85.2275Z" stroke="#000" stroke-width="1.00004"/><path d="M21.074 64.9011C20.6224 64.5842 19.9993 64.6933 19.6824 65.145 19.6821 65.1454 19.6817 65.1459 19.6814 65.1464 18.5647 66.7415 17.9651 67.6711 17.9651 67.6711 17.6538 68.1273 17.7713 68.7495 18.2276 69.0607 18.6838 69.372 19.306 69.2545 19.6172 68.7983 19.6266 68.7845 19.6357 68.7704 19.6444 68.7562 19.6506 68.7473 20.2361 67.8416 21.3203 66.2939 21.6366 65.8412 21.5264 65.2178 21.074 64.9011Z" stroke="#000" stroke-width="1.00004"/></g></svg>